<svg width="27" height="27" viewBox="0 0 27 27" fill="none" xmlns="http://www.w3.org/2000/svg">
<path d="M17.4228 7.03215C17.4228 8.13003 16.9867 9.18294 16.2104 9.95926C15.4341 10.7356 14.3812 11.1717 13.2833 11.1717C12.1854 11.1717 11.1325 10.7356 10.3562 9.95926C9.57984 9.18294 9.14371 8.13003 9.14371 7.03215C9.14371 5.93426 9.57984 4.88135 10.3562 4.10503C11.1325 3.32871 12.1854 2.89258 13.2833 2.89258C14.3812 2.89258 15.4341 3.32871 16.2104 4.10503C16.9867 4.88135 17.4228 5.93426 17.4228 7.03215ZM5.00525 22.6168C5.04072 20.4447 5.92847 18.3736 7.47704 16.8501C9.02561 15.3267 11.1109 14.4728 13.2833 14.4728C15.4556 14.4728 17.5409 15.3267 19.0895 16.8501C20.6381 18.3736 21.5258 20.4447 21.5613 22.6168C18.9643 23.8076 16.1403 24.4222 13.2833 24.4183C10.3293 24.4183 7.52542 23.7737 5.00525 22.6168Z" stroke="#888888" stroke-width="1.65583" stroke-linecap="round" stroke-linejoin="round"/>
</svg>
