<svg width="113" height="48" viewBox="0 0 113 48" fill="none" xmlns="http://www.w3.org/2000/svg">
<rect x="0.61792" width="112" height="48" rx="8" fill="white"/>
<rect x="1.11792" y="0.5" width="111" height="47" rx="7.5" stroke="#BBBEC3" stroke-opacity="0.4"/>
<path d="M57.1726 17.5385C58.2559 17.5385 59.6138 16.8061 60.4224 15.8296C61.1548 14.9447 61.6888 13.7088 61.6888 12.473C61.6888 12.3051 61.6735 12.1373 61.643 12C60.4377 12.0458 58.9882 12.8086 58.1186 13.8309C57.432 14.609 56.8064 15.8296 56.8064 17.0807C56.8064 17.2638 56.8369 17.4469 56.8522 17.5079C56.9285 17.5232 57.0505 17.5385 57.1726 17.5385ZM53.3582 36C54.8382 36 55.4943 35.0083 57.3404 35.0083C59.2171 35.0083 59.629 35.9695 61.2769 35.9695C62.8941 35.9695 63.9774 34.4743 64.9997 33.0095C66.144 31.3312 66.617 29.6834 66.6475 29.6071C66.5407 29.5766 63.4434 28.3102 63.4434 24.7552C63.4434 21.6732 65.8846 20.2848 66.0219 20.178C64.4046 17.8589 61.9482 17.7978 61.2769 17.7978C59.4612 17.7978 57.9812 18.8964 57.0505 18.8964C56.0435 18.8964 54.7161 17.8589 53.1446 17.8589C50.1542 17.8589 47.1179 20.3306 47.1179 24.9994C47.1179 27.8983 48.247 30.965 49.6354 32.9485C50.8255 34.6268 51.863 36 53.3582 36Z" fill="#333333"/>
</svg>
