<svg width="23" height="26" viewBox="0 0 23 26" fill="none" xmlns="http://www.w3.org/2000/svg">
<g clip-path="url(#clip0_0_1747)">
<path d="M20.3298 9.67871L10.3343 19.6639V21.2265H11.8969L21.8925 11.2465L20.3298 9.68392M19.3662 10.6319L20.9289 12.1945M3.25039 19.2524C3.77401 19.2551 4.27533 19.4647 4.6451 19.8355C5.01487 20.2062 5.22313 20.7081 5.2245 21.2317M3.25039 14.1582C5.12639 14.1582 6.92555 14.9035 8.25209 16.23C9.57862 17.5565 10.3239 19.3557 10.3239 21.2317M3.25039 16.7522C4.43891 16.7522 5.57883 17.224 6.41973 18.0639C7.26063 18.9038 7.73373 20.0432 7.73511 21.2317" stroke="#333333" stroke-width="1.45845" stroke-linecap="round" stroke-linejoin="round"/>
<path d="M8.95876 7.16844C9.46506 7.16844 9.8755 6.758 9.8755 6.2517C9.8755 5.7454 9.46506 5.33496 8.95876 5.33496C8.45246 5.33496 8.04202 5.7454 8.04202 6.2517C8.04202 6.758 8.45246 7.16844 8.95876 7.16844Z" stroke="#333333" stroke-width="1.45845" stroke-linecap="round" stroke-linejoin="round"/>
<path d="M14.6002 18.5233V21.2318H3.25039V7.45472L8.92792 3.73047L14.6002 7.45472V15.3616M11.8552 18.1431L13.4231 19.7109" stroke="#333333" stroke-width="1.45845" stroke-linecap="round" stroke-linejoin="round"/>
</g>
<defs>
<clipPath id="clip0_0_1747">
<rect width="21.8767" height="25.002" fill="white" transform="translate(0.340698 0.5)"/>
</clipPath>
</defs>
</svg>
