<svg width="41" height="41" viewBox="0 0 41 41" fill="none" xmlns="http://www.w3.org/2000/svg">
<rect x="0.303101" y="0.5" width="40" height="40" rx="20" fill="#EBEBEB"/>
<circle cx="19.8821" cy="15.778" r="4.77803" stroke="#B4B4B4" stroke-width="1.3" stroke-linecap="round" stroke-linejoin="round"/>
<path fill-rule="evenodd" clip-rule="evenodd" d="M12.3031 27.2016C12.3018 26.8657 12.377 26.5339 12.5228 26.2313C12.9805 25.316 14.2711 24.8308 15.342 24.6112C16.1144 24.4463 16.8974 24.3362 17.6853 24.2816C19.1439 24.1535 20.611 24.1535 22.0697 24.2816C22.8575 24.3369 23.6405 24.447 24.413 24.6112C25.4839 24.8308 26.7745 25.2702 27.2322 26.2313C27.5255 26.8481 27.5255 27.5642 27.2322 28.181C26.7745 29.1421 25.4839 29.5814 24.413 29.7919C23.6415 29.9636 22.8582 30.0768 22.0697 30.1306C20.8825 30.2313 19.6897 30.2496 18.4999 30.1855C18.2253 30.1855 17.9599 30.1855 17.6853 30.1306C16.8997 30.0775 16.1194 29.9642 15.3512 29.7919C14.2711 29.5814 12.9896 29.1421 12.5228 28.181C12.3777 27.8749 12.3027 27.5403 12.3031 27.2016Z" stroke="#B4B4B4" stroke-width="1.3" stroke-linecap="round" stroke-linejoin="round"/>
</svg>
