<svg width="25" height="25" viewBox="0 0 25 25" fill="none" xmlns="http://www.w3.org/2000/svg">
<path d="M12.3407 12.2861H12.3507M16.3407 6.28613V4.28613C16.3407 3.7557 16.13 3.24699 15.7549 2.87192C15.3798 2.49685 14.8711 2.28613 14.3407 2.28613H10.3407C9.81027 2.28613 9.30156 2.49685 8.92649 2.87192C8.55141 3.24699 8.3407 3.7557 8.3407 4.28613V6.28613M22.3407 13.2861C19.3735 15.2451 15.8962 16.2894 12.3407 16.2894C8.78515 16.2894 5.30791 15.2451 2.3407 13.2861" stroke="#333333" stroke-width="1.68" stroke-linecap="round" stroke-linejoin="round"/>
<path d="M20.3407 6.28613H4.3407C3.23613 6.28613 2.3407 7.18156 2.3407 8.28613V18.2861C2.3407 19.3907 3.23613 20.2861 4.3407 20.2861H20.3407C21.4453 20.2861 22.3407 19.3907 22.3407 18.2861V8.28613C22.3407 7.18156 21.4453 6.28613 20.3407 6.28613Z" stroke="#333333" stroke-width="1.68" stroke-linecap="round" stroke-linejoin="round"/>
</svg>
