<svg width="49" height="48" viewBox="0 0 49 48" fill="none" xmlns="http://www.w3.org/2000/svg">
<rect x="0.533804" y="0.461538" width="47.0769" height="47.0769" rx="23.5385" stroke="#333333" stroke-width="0.923077"/>
<path d="M15.7646 18.4609H17.6108H32.38" stroke="#333333" stroke-width="1.15385" stroke-linecap="round" stroke-linejoin="round"/>
<path d="M30.5339 18.4609V31.3839C30.5339 31.8736 30.3394 32.3431 29.9932 32.6894C29.647 33.0356 29.1774 33.2301 28.6878 33.2301H19.457C18.9674 33.2301 18.4978 33.0356 18.1516 32.6894C17.8053 32.3431 17.6108 31.8736 17.6108 31.3839V18.4609M20.3801 18.4609V16.6147C20.3801 16.1251 20.5746 15.6555 20.9208 15.3093C21.267 14.9631 21.7366 14.7686 22.2262 14.7686H25.9185C26.4082 14.7686 26.8777 14.9631 27.224 15.3093C27.5702 15.6555 27.7647 16.1251 27.7647 16.6147V18.4609" stroke="#333333" stroke-width="1.15385" stroke-linecap="round" stroke-linejoin="round"/>
</svg>
