<svg width="25" height="25" viewBox="0 0 25 25" fill="none" xmlns="http://www.w3.org/2000/svg">
<path d="M3.28326 13.7803C3.28326 13.1593 3.78726 12.6553 4.40826 12.6553H6.65826C7.27926 12.6553 7.78326 13.1593 7.78326 13.7803V20.5303C7.78326 21.1513 7.27926 21.6553 6.65826 21.6553H4.40826C4.1099 21.6553 3.82375 21.5367 3.61277 21.3258C3.40179 21.1148 3.28326 20.8286 3.28326 20.5303V13.7803ZM10.0333 9.28027C10.0333 8.65927 10.5373 8.15527 11.1583 8.15527H13.4083C14.0293 8.15527 14.5333 8.65927 14.5333 9.28027V20.5303C14.5333 21.1513 14.0293 21.6553 13.4083 21.6553H11.1583C10.8599 21.6553 10.5737 21.5367 10.3628 21.3258C10.1518 21.1148 10.0333 20.8286 10.0333 20.5303V9.28027ZM16.7833 4.78027C16.7833 4.15927 17.2873 3.65527 17.9083 3.65527H20.1583C20.7793 3.65527 21.2833 4.15927 21.2833 4.78027V20.5303C21.2833 21.1513 20.7793 21.6553 20.1583 21.6553H17.9083C17.6099 21.6553 17.3237 21.5367 17.1128 21.3258C16.9018 21.1148 16.7833 20.8286 16.7833 20.5303V4.78027Z" stroke="#888888" stroke-width="1.5" stroke-linecap="round" stroke-linejoin="round"/>
</svg>
