<svg width="113" height="48" viewBox="0 0 113 48" fill="none" xmlns="http://www.w3.org/2000/svg">
<rect x="0.61792" width="112" height="48" rx="8" fill="white"/>
<rect x="1.11792" y="0.5" width="111" height="47" rx="7.5" stroke="#BBBEC3" stroke-opacity="0.4"/>
<path fill-rule="evenodd" clip-rule="evenodd" d="M68.1379 24.2729C68.1379 23.422 68.0616 22.6038 67.9197 21.8184H56.6179V26.4602H63.0761C62.7979 27.9602 61.9525 29.2311 60.6816 30.082V33.0929H64.5597C66.8288 31.0038 68.1379 27.9274 68.1379 24.2729Z" fill="#4285F4"/>
<path fill-rule="evenodd" clip-rule="evenodd" d="M56.6179 35.9998C59.8579 35.9998 62.5743 34.9252 64.5597 33.0925L60.6816 30.0816C59.607 30.8016 58.2325 31.2271 56.6179 31.2271C53.4925 31.2271 50.847 29.1161 49.9034 26.2798H45.8943V29.3889C47.8688 33.3107 51.927 35.9998 56.6179 35.9998Z" fill="#34A853"/>
<path fill-rule="evenodd" clip-rule="evenodd" d="M49.9034 26.2799C49.6634 25.5599 49.527 24.7908 49.527 23.9999C49.527 23.209 49.6634 22.4399 49.9034 21.7199V18.6108H45.8943C45.0816 20.2308 44.6179 22.0636 44.6179 23.9999C44.6179 25.9363 45.0816 27.769 45.8943 29.389L49.9034 26.2799Z" fill="#FBBC05"/>
<path fill-rule="evenodd" clip-rule="evenodd" d="M56.6179 16.7727C58.3797 16.7727 59.9616 17.3782 61.2052 18.5673L64.647 15.1255C62.5688 13.1891 59.8525 12 56.6179 12C51.927 12 47.8688 14.6891 45.8943 18.6109L49.9034 21.72C50.847 18.8836 53.4925 16.7727 56.6179 16.7727Z" fill="#EA4335"/>
</svg>
