<svg width="25" height="25" viewBox="0 0 25 25" fill="none" xmlns="http://www.w3.org/2000/svg">
<path d="M11.5129 3.99639C11.6535 3.85594 11.8442 3.77705 12.0429 3.77705C12.2417 3.77705 12.4323 3.85594 12.5729 3.99639L21.2629 12.6864C21.3321 12.758 21.4149 12.8151 21.5064 12.8543C21.598 12.8936 21.6964 12.9143 21.796 12.9151C21.8956 12.9159 21.9943 12.8969 22.0865 12.8591C22.1786 12.8214 22.2623 12.7656 22.3327 12.6952C22.4031 12.6247 22.4587 12.541 22.4964 12.4488C22.5341 12.3566 22.553 12.2578 22.5521 12.1582C22.5512 12.0586 22.5304 11.9602 22.4911 11.8688C22.4518 11.7773 22.3946 11.6945 22.3229 11.6254L13.6339 2.93539C13.425 2.72645 13.1769 2.56072 12.904 2.44764C12.631 2.33457 12.3384 2.27637 12.0429 2.27637C11.7474 2.27637 11.4549 2.33457 11.1819 2.44764C10.9089 2.56072 10.6608 2.72645 10.4519 2.93539L1.76191 11.6254C1.69031 11.6946 1.63322 11.7774 1.59395 11.8689C1.55469 11.9604 1.53405 12.0589 1.53323 12.1584C1.53241 12.258 1.55143 12.3568 1.58919 12.4489C1.62694 12.5411 1.68267 12.6248 1.75312 12.6952C1.82358 12.7656 1.90734 12.8212 1.99953 12.8589C2.09172 12.8966 2.19049 12.9155 2.29007 12.9146C2.38965 12.9137 2.48806 12.8929 2.57954 12.8536C2.67103 12.8142 2.75376 12.7571 2.82291 12.6854L11.5129 3.99639Z" fill="#888888"/>
<path d="M12.043 5.58691L20.202 13.7459C20.232 13.7759 20.262 13.8039 20.293 13.8319V20.0299C20.293 21.0649 19.453 21.9049 18.418 21.9049H15.043C14.8441 21.9049 14.6533 21.8259 14.5126 21.6852C14.372 21.5446 14.293 21.3538 14.293 21.1549V16.6549C14.293 16.456 14.214 16.2652 14.0733 16.1246C13.9326 15.9839 13.7419 15.9049 13.543 15.9049H10.543C10.3441 15.9049 10.1533 15.9839 10.0126 16.1246C9.87199 16.2652 9.79297 16.456 9.79297 16.6549V21.1549C9.79297 21.3538 9.71395 21.5446 9.5733 21.6852C9.43265 21.8259 9.24188 21.9049 9.04297 21.9049H5.66797C5.17069 21.9049 4.69377 21.7074 4.34214 21.3557C3.99051 21.0041 3.79297 20.5272 3.79297 20.0299V13.8319C3.82408 13.8041 3.85442 13.7754 3.88397 13.7459L12.043 5.58691Z" fill="#888888"/>
</svg>
