<svg width="105" height="105" viewBox="0 0 105 105" fill="none" xmlns="http://www.w3.org/2000/svg">
<circle cx="52.6826" cy="52.5" r="52" fill="#F2AC32"/>
<circle cx="52.6826" cy="52.5" r="51.75" stroke="white" stroke-opacity="0.2" stroke-width="0.5"/>
<circle cx="54.1887" cy="42.8233" r="12.4229" stroke="white" stroke-width="1.3" stroke-linecap="round" stroke-linejoin="round"/>
<path fill-rule="evenodd" clip-rule="evenodd" d="M34.4834 72.5242C34.4801 71.6509 34.6754 70.7883 35.0546 70.0016C36.2445 67.6217 39.6001 66.3604 42.3846 65.7892C44.3927 65.3607 46.4286 65.0744 48.477 64.9325C52.2696 64.5993 56.084 64.5993 59.8766 64.9325C61.9248 65.076 63.9606 65.3623 65.969 65.7892C68.7535 66.3604 72.1091 67.5027 73.299 70.0016C74.0616 71.6052 74.0616 73.467 73.299 75.0707C72.1091 77.5695 68.7535 78.7119 65.969 79.2592C63.9632 79.7055 61.9266 79.9999 59.8766 80.1398C56.7898 80.4015 53.6885 80.4492 50.5951 80.2826C49.8812 80.2826 49.191 80.2826 48.477 80.1398C46.4346 80.0016 44.4058 79.7072 42.4084 79.2592C39.6001 78.7119 36.2683 77.5695 35.0546 75.0707C34.6774 74.2749 34.4822 73.405 34.4834 72.5242Z" stroke="white" stroke-width="1.3" stroke-linecap="round" stroke-linejoin="round"/>
</svg>
