<svg width="25" height="25" viewBox="0 0 25 25" fill="none" xmlns="http://www.w3.org/2000/svg">
<path d="M21.4279 5.5962C20.9172 5.0852 20.3108 4.67985 19.6433 4.40328C18.9758 4.12672 18.2604 3.98437 17.5379 3.98438C16.8155 3.98437 16.1001 4.12672 15.4326 4.40328C14.7651 4.67985 14.1587 5.0852 13.6479 5.5962L12.5879 6.6562L11.5279 5.5962C10.4963 4.56451 9.09698 3.98491 7.63795 3.98491C6.17892 3.98491 4.77964 4.56451 3.74795 5.5962C2.71626 6.62789 2.13666 8.02717 2.13666 9.4862C2.13666 10.9452 2.71626 12.3445 3.74795 13.3762L4.80795 14.4362L12.5879 22.2162L20.3679 14.4362L21.4279 13.3762C21.9389 12.8654 22.3443 12.259 22.6209 11.5916C22.8974 10.9241 23.0398 10.2087 23.0398 9.4862C23.0398 8.76371 22.8974 8.0483 22.6209 7.38085C22.3443 6.71339 21.9389 6.10696 21.4279 5.5962V5.5962Z" stroke="#959595" stroke-width="1.25" stroke-linecap="round" stroke-linejoin="round"/>
</svg>
