<svg width="25" height="25" viewBox="0 0 25 25" fill="none" xmlns="http://www.w3.org/2000/svg">
<g clip-path="url(#clip0_0_1738)">
<path d="M14.6567 9.24054C14.5182 8.85098 14.2626 8.51375 13.9251 8.275C13.5875 8.03625 13.1844 7.90766 12.771 7.90682H11.223C10.7813 7.90451 10.3545 8.06604 10.0251 8.36017C9.69567 8.6543 9.487 9.06014 9.43944 9.49921C9.39189 9.93828 9.50883 10.3794 9.76766 10.7372C10.0265 11.0951 10.4088 11.3442 10.8407 11.4365L13.1978 11.9508C13.6798 12.0563 14.1058 12.3362 14.3939 12.7367C14.6821 13.1373 14.8121 13.6301 14.7589 14.1206C14.7058 14.6112 14.4732 15.0647 14.106 15.3942C13.7387 15.7237 13.2627 15.9059 12.7693 15.9057H11.4373C10.5664 15.9057 9.82584 15.3503 9.55155 14.5737M12.1041 7.90682V5.90625M12.1041 17.9063V15.9074M3.76584 23.2822V18.9965H8.05155" stroke="#333333" stroke-width="1.68" stroke-linecap="round" stroke-linejoin="round"/>
<path d="M23.2916 10.0928C23.7467 12.5189 23.3833 15.0274 22.2585 17.2247C21.1338 19.4219 19.3113 21.1835 17.0771 22.2329C14.8429 23.2823 12.3234 23.5602 9.91423 23.0229C7.50502 22.4856 5.34242 21.1635 3.76584 19.2642M1.38984 14.1934C0.934738 11.7673 1.29808 9.25878 2.42285 7.06154C3.54761 4.86429 5.37012 3.10272 7.60433 2.05329C9.83853 1.00386 12.358 0.725987 14.7672 1.26329C17.1764 1.80059 19.339 3.12264 20.9156 5.02195" stroke="#333333" stroke-width="1.68" stroke-linecap="round" stroke-linejoin="round"/>
<path d="M20.9156 1.00391V5.28962H16.6298" stroke="#333333" stroke-width="1.68" stroke-linecap="round" stroke-linejoin="round"/>
</g>
<defs>
<clipPath id="clip0_0_1738">
<rect width="24" height="24" fill="white" transform="translate(0.340698 0.143555)"/>
</clipPath>
</defs>
</svg>
